<?xml version="1.0" standalone="no"?>
<!DOCTYPE svg PUBLIC "-//W3C//DTD SVG 20010904//EN"
 "http://www.w3.org/TR/2001/REC-SVG-20010904/DTD/svg10.dtd">
<svg version="1.0" xmlns="http://www.w3.org/2000/svg"
 width="94.000000pt" height="94.000000pt" viewBox="0 0 94.000000 94.000000"
 preserveAspectRatio="xMidYMid meet">
<metadata>
Created by potrace 1.16, written by Peter Selinger 2001-2019
</metadata>
<g transform="translate(0.000000,94.000000) scale(0.100000,-0.100000)"
fill="#000000" stroke="none">
<path d="M325 923 c-128 -46 -222 -129 -282 -250 -38 -77 -38 -77 -38 -203 0
-126 0 -126 38 -204 51 -101 122 -172 223 -223 78 -38 78 -38 204 -38 126 0
126 0 204 38 100 50 173 122 220 219 19 40 38 90 42 111 l6 38 -118 -90 c-66
-50 -123 -91 -129 -90 -11 0 -95 103 -95 116 0 4 30 30 65 57 36 27 65 52 65
56 0 4 -29 30 -65 56 -35 27 -64 53 -65 57 0 13 84 116 96 116 11 1 168 -113
218 -158 l29 -26 -7 50 c-9 74 -69 187 -131 250 -34 33 -83 68 -131 92 -74 36
-83 38 -188 41 -86 2 -122 -2 -161 -15z m24 -286 c22 -30 41 -58 41 -64 0 -5
-29 -31 -65 -58 -36 -27 -65 -52 -65 -55 0 -3 29 -28 65 -55 36 -27 65 -54 65
-60 0 -12 -77 -108 -91 -113 -10 -4 -181 120 -231 166 -36 33 -38 89 -5 119
46 44 221 173 232 173 7 0 31 -24 54 -53z"/>
</g>
</svg>
